<?xml version="1.0" encoding="utf-8"?>
<!-- Generator: Adobe Illustrator 26.2.1, SVG Export Plug-In . SVG Version: 6.00 Build 0)  -->
<svg version="1.1" id="Layer_1" xmlns="http://www.w3.org/2000/svg" xmlns:xlink="http://www.w3.org/1999/xlink" x="0px" y="0px"
	 viewBox="0 0 16 16" style="enable-background:new 0 0 16 16;" xml:space="preserve">
<style type="text/css">
	.st0{fill:#FFFFFF;}
	.st1{fill:none;stroke:#000000;stroke-width:4.723;stroke-linecap:round;stroke-miterlimit:10;}
	.st2{clip-path:url(#SVGID_00000014592398125068777080000006432876758919138471_);}
	.st3{fill:#EE3663;}
	.st4{fill:#F37A35;}
	.st5{fill:#F1614D;}
	.st6{fill:#704D9F;}
	.st7{fill:#A54399;}
	.st8{fill:#C03E96;}
	.st9{fill:#D73C91;}
	.st10{fill:#8E4A9D;}
	.st11{fill:#E63D76;}
	.st12{fill:#F47A54;}
	.st13{fill:#E95070;}
	.st14{fill:#EF565A;}
	.st15{fill:#E23F86;}
	.st16{fill:#EC3F5D;}
	.st17{fill:#F2706C;}
	.st18{fill:#EC5B9A;}
	.st19{clip-path:url(#SVGID_00000055686582918285168490000003820265134615809943_);}
	.st20{clip-path:url(#SVGID_00000160911525883493321410000004175887286704915631_);}
</style>
<g>
	<g>
		<defs>
			<text id="SVGID_1_" transform="matrix(1 0 0 1 -67.3653 104.0998)" style="font-family:'LEMONMILK-Bold'; font-size:35.9001px;">CLASSLY</text>
		</defs>
		<clipPath id="SVGID_00000183963693547791080080000000161363888405250985_">
			<use xlink:href="#SVGID_1_"  style="overflow:visible;"/>
		</clipPath>
		
			<g id="F3hlPS_00000037668305709092708120000001457584958783958955_" style="clip-path:url(#SVGID_00000183963693547791080080000000161363888405250985_);">
			<g>
				<path class="st3" d="M67.89,115.14c-2.52,0-5.04,0-7.56,0c-0.74-3.13-0.81-6.31-0.67-9.49c0.08-1.83-0.31-3.11-2.09-4.2
					c-1.68-1.03-3.92-2.47-3.87-4.51c0.12-4.21-2.79-4.02-5.38-4.39c-1.45-0.21-2.96-0.16-4.43-0.06c-2.47,0.17-4.06-0.99-5.3-3
					c-2-3.23-3.42-6.65-3.6-10.47c-0.11-2.38-1.32-3.22-3.53-3.03c-0.06-0.66-0.12-1.32-0.18-1.98c-0.12-5.51-1.45-10.61-5.15-14.86
					c-0.76-0.87-0.97-1.83-0.86-2.84c0.27-2.36-0.51-3.98-2.84-4.77c-0.76-0.26-1.48-0.72-1.77-1.53c-1.48-4.11-4.02-6.74-8.71-6.79
					c-1.04-0.01-2.51-0.25-2.31-1.89c0.2-1.66,1.58-1.68,2.87-1.76c1.74-0.11,3.4,0.25,5.08,0.58c0.67,0.13,1.4,0.06,1.81-0.63
					c0.33-0.54,0.33-1.34-0.2-1.53c-4.13-1.49-2.64-5-2.86-7.86c-0.13-1.63,0.03-3.26-2.22-3.6c-2.45-0.37-1.5-1.2-0.33-2.27
					c1.34-1.22,2.84-2.73,1.86-4.68c-1.08-2.14-3.07-0.73-4.63-0.51c-1.21,0.17-2.4,0.71-3.51,1.26c-1.23,0.61-2.38,0.71-3.59,0.08
					c1.74-2.89,5.11-2.23,7.6-3.49c1.79-1.64,4-1.37,6.17-1.42c5.05-0.11,8.13-2.73,8.94-7.5l0.04-0.04
					c2.09-0.53,3.28-1.84,3.44-4.02c1.95-3.19,2.37-6.78,2.71-10.4c2.29,0,4.58,0,6.87,0c0.63,2.01,1.4,4.12,1.65,6.08
					c0.48,3.77,1.84,3.01,3.91,1.51c-0.07,2.27,0.14,4.68-2.75,5.56c-0.21-0.95,0.42-2.5-1.54-2.22c-0.78,0.11-1.71,0.24-1.75,1.21
					c-0.07,1.93,1.53,1.46,2.64,1.67c0.22,0.45,0.44,0.9,0.66,1.35c-0.04,0.21-0.08,0.42-0.1,0.63c-2.33,0.01-2.54,2.42-3.94,3.47
					c-3.22-0.81-4.2-0.2-3.86,2.77c0.15,1.33-0.23,2.22-1.07,3.05c-2.98,2.94-1.56,7.47-3.89,10.72c-0.62,0.86,0.64,1.76,1.42,2.46
					c2.7,2.4,2.99,6.38,1.6,9.6c-0.92,2.12-3.14,4.77-0.73,7.02c1.95,1.82,2.35,3.75,2.26,6.11c-0.07,1.97-0.13,4.04,1.67,5.33
					c2.02,1.44,2.04,3,0.98,5.03c-0.98,1.86-1.2,4.3,0.8,5.16c2.26,0.97,2.74,2.41,3.02,4.39c0.3,2.1,1.08,3.39,3.64,2.52
					c1.41-0.48,2.65,0.43,3.48,1.65c0.81,1.19,0.89,2.26-0.4,3.28c-0.96,0.77-0.39,1.56,0.18,2.37c1.58,2.23,3.82,3.62,6.13,4.86
					c2.31,1.23,9.3-0.61,10.79-2.75c0.6-0.86,1.33-1.68,2.11-0.76c1.13,1.33,4.47,1.14,3.62,3.4c-1.27,3.36,0.09,6.51-0.26,9.75
					c-0.49,4.51-0.32,8.94,4.14,11.78C71.9,111.85,68.18,111.18,67.89,115.14z"/>
				<path class="st12" d="M-12.47-0.22c-2.26-0.02-4.52-0.22-6.76,0.38c-1.75,0.47-3.49-0.22-4.83-1.19
					c-2.24-1.63-4.22-3.61-6.31-5.45c15.58,0,31.15,0,46.73,0c-0.03,1.9,0.66,4.37-1.53,5.19c-2.93,1.09-3.91,3.03-4.02,5.82
					c-0.44,0.21-0.88,0.42-1.31,0.63C9.03,5.2,8.57,5.24,8.11,5.28C7.16,5.3,6.49,5.75,6.06,6.59C3.54,6.62,1.01,6.65-1.52,6.68
					c-0.36-3.16-3.49-1.54-5.01-2.57c0.35-1.32,2.45-1.21,1.75-2.76C-5.28,0.23-6.5,0.5-7.48,0.37C-9.14,0.14-10.75-0.5-12.47-0.22z
					"/>
				<path class="st14" d="M6.06,6.59c0.43-0.84,1.1-1.29,2.05-1.31c0.11,0.4,0.23,0.93,0.73,0.81c0.28-0.07,0.44-0.6,0.65-0.92
					c0.44-0.21,0.88-0.42,1.31-0.63c1.13,0.06,1.8-0.63,2.6-1.32c3-2.57,4.16-6.04,5.01-9.69c4.81,0,9.62,0,14.43,0
					c-0.34,3.61-0.76,7.2-2.71,10.4c-2.21,0.43-3.41,1.73-3.44,4.02c0,0-0.04,0.04-0.04,0.04c-2,0.38-3.15,2.13-4.86,3.01
					c-2.47,1.27-4.72,1.99-6.85-0.8c-1.15-1.51-2.7-2.45-5.04-1.74C7.11,9.3,4.14,9.54,1.24,10.04c0,0-0.05-0.04-0.05-0.04
					C1.94,7.61,5.41,9.11,6.06,6.59z"/>
				<path class="st17" d="M18.42-6.48c-0.84,3.65-2.01,7.12-5.01,9.69c-0.8,0.69-1.48,1.38-2.6,1.32c0.11-2.79,1.09-4.73,4.02-5.82
					c2.18-0.81,1.5-3.29,1.53-5.19C17.04-6.48,17.73-6.48,18.42-6.48z"/>
				<path class="st11" d="M-46.19,45.72c0.95-2.58-0.58-3.53-2.69-4.1c1.18-2.48-0.54-5.69,2.24-7.91c0.71-0.57-0.79-0.84-1.5-0.88
					c0.07-1.75,0.7-2.97,2.73-2.82c0.93,1.6,1.66-0.64,2.54-0.13c0.14,0.26,0.27,0.51,0.4,0.77c0.15-0.22,0.3-0.45,0.45-0.67
					c0.19-0.05,0.37-0.11,0.56-0.16c-0.06-0.1-0.12-0.19-0.18-0.29c-0.15,0.12-0.3,0.25-0.45,0.37c-0.24-0.03-0.48-0.06-0.72-0.08
					c0.25-0.63,0.5-1.27,0.74-1.9c0.47-0.45,0.94-0.91,1.41-1.36c1-0.1,1.31,0.86,1.97,1.28c0.13,3.55,3.15,1.54,4.71,2.29
					c1.33,0.64,2.37-0.67,2.96-2.07c1.39-3.31,2.81-6.61,6.38-8.27c1.26-0.59,1.15-1.81,1.07-2.96c0.01-0.44,0.02-0.88,0.02-1.32
					c0.69,0.02,1.37,0.04,2.06,0.06c-0.22,2.03-0.6,4.07-0.63,6.11c-0.03,1.91-0.78,4.28,2.29,4.9c2.88,0.59,5.7,1.15,7.34-2.16
					c0.94-1.89,2.56-1.64,3.77-0.92c2.27,1.35,4.47,0.68,6.13-0.43c2.06-1.37,4.26-1.96,6.5-2.67c1.21,0.63,2.36,0.54,3.59-0.08
					c1.11-0.55,2.3-1.09,3.51-1.26c1.56-0.22,3.55-1.63,4.63,0.51c0.98,1.95-0.52,3.46-1.86,4.68c-1.17,1.07-2.13,1.9,0.33,2.27
					c2.25,0.34,2.09,1.97,2.22,3.6c0.22,2.86-1.26,6.36,2.86,7.86c0.53,0.19,0.52,0.98,0.2,1.53c-0.42,0.69-1.14,0.77-1.81,0.63
					c-1.68-0.33-3.35-0.69-5.08-0.58c-1.3,0.08-2.68,0.1-2.87,1.76c-0.19,1.65,1.28,1.88,2.31,1.89c4.69,0.05,7.23,2.68,8.71,6.79
					c0.29,0.8,1.01,1.27,1.77,1.53c2.34,0.79,3.12,2.42,2.84,4.77c-0.12,1.02,0.1,1.97,0.86,2.84c3.7,4.25,5.02,9.36,5.15,14.86
					c-1.82-0.12-1.59-2.5-3.17-2.89c-0.7-1.62-1.4-3.23-2.1-4.85c-0.61-2.39-0.89-4.92-2.77-6.79c-0.89-3.82-4.18-6.01-6.12-9.11
					c-1.8-2.89-4.15-4.64-7.66-4.59c-0.22-0.25-0.44-0.49-0.65-0.74c-0.81-1.93-2.09-1.56-3.47-0.7c-0.44-0.01-0.88-0.02-1.33-0.03
					c-1.44-2.35-3.66-1.21-5.55-1.11c-1.52,0.08-3.01,0.81-4.61,0.17c2.31-3.03,2.22-3.04-1.36-4c-1.95-0.52-4.17-0.06-5.85-1.58
					c-0.51-0.46-1.24-0.86-0.86-1.64c0.39-0.8,1.13-0.56,1.76-0.2c2.22,1.27,2.57-0.18,2.67-1.87c0.07-1.36,0.06-2.74,0.01-4.1
					c-0.03-0.87,0.28-2.04-0.8-2.39c-1.19-0.39-1.51,0.78-1.8,1.59c-0.42,1.19-1.37,1.82-2.31,2.42c-1.79,1.13-2.68,2.69-3.62,4.65
					c-1.17,2.44-1.36,6.02-5.43,6.56c-1.67,0.22-2.92,2.13-2.52,4.3c-0.23,0.46-0.46,0.91-0.7,1.37c-1.85-0.13-2.02,3.2-4.34,2.11
					c0.05-0.47,0.1-0.93,0.15-1.4c1.88-2.46,2.6-8.83,0.59-11.17c-1.09-1.27,0.33-4.04-2.53-3.97c-1.34-1.79-2.59-1.48-3.4,0.37
					c-0.73,1.68-1.92,2.97-3,4.38c-0.64-1.83-1.32-3.66,0.31-5.39c0.33-0.35,0.28-0.86-0.11-1.21c-0.5-0.45-0.95-0.34-1.51,0.04
					c-2.96,1.99-3.37,7.08-0.72,9.36c-2.02,1.87-2.59,5-5.38,6.21c0.02-0.23,0.03-0.46,0.02-0.69l0,0.01
					C-46.35,46.79-45.49,46.62-46.19,45.72z M-44.78,33.4c0.26-0.29,0.52-0.58,0.78-0.87c-0.08-0.06-0.16-0.11-0.24-0.17
					c-0.2,0.33-0.39,0.66-0.59,0.99l-0.15,0.21L-44.78,33.4z"/>
				<path class="st13" d="M3.94,20.4c-2.23,0.71-4.44,1.3-6.5,2.67c-1.67,1.11-3.87,1.78-6.13,0.43c-1.21-0.72-2.83-0.97-3.77,0.92
					c-1.65,3.31-4.46,2.75-7.34,2.16c-3.07-0.63-2.32-2.99-2.29-4.9c0.03-2.04,0.4-4.07,0.63-6.11c1.84-0.28,2.66-2.06,4.17-2.83
					c1.9,0.1,3.77,0.11,4.7-2.03c1.87-0.02,3.74-0.04,5.62-0.06l0.31,0.03l0.32,0c1.63-0.13,3.37,0.49,4.87-0.66
					C-0.59,10.01,0.3,10,1.19,10c0,0,0.05,0.04,0.05,0.04c1.29,1.81,1.23,3.26-0.98,4.33c-0.79,0.38-1.7,1.04-1.34,2.11
					c0.4,1.21,1.61,1.1,2.61,1.07c1.82-0.06,3.6-0.33,5.17-1.38c1.62-0.01,3.23-0.03,4.85-0.04c0,0.26-0.01,0.52-0.01,0.78
					C9.05,18.17,5.68,17.51,3.94,20.4z"/>
				<path class="st16" d="M6.7,16.16c-1.57,1.05-3.35,1.32-5.17,1.38c-1,0.03-2.21,0.14-2.61-1.07c-0.36-1.07,0.55-1.72,1.34-2.11
					c2.21-1.07,2.27-2.52,0.98-4.33c2.9-0.5,5.87-0.74,8.66-1.59c2.34-0.71,3.89,0.23,5.04,1.74c2.13,2.79,4.37,2.07,6.85,0.8
					c1.7-0.88,2.85-2.63,4.86-3.01c-0.81,4.78-3.89,7.39-8.94,7.5c-2.17,0.05-4.38-0.22-6.17,1.42c0-0.26,0.01-0.52,0.01-0.78
					c1.07-4.09-2.38-2.79-4.09-3.21c-1.11-0.27-2.7,0.28-2.94,1.64C4.29,15.86,6.19,15.29,6.7,16.16z"/>
				<path class="st17" d="M-1.48,10.01C-1.49,8.9-1.5,7.79-1.52,6.68c2.53-0.03,5.05-0.06,7.58-0.09C5.41,9.11,1.94,7.61,1.19,10
					C0.3,10-0.59,10.01-1.48,10.01z"/>
				<path class="st17" d="M9.49,5.16C9.28,5.48,9.12,6.01,8.84,6.08c-0.5,0.13-0.62-0.4-0.73-0.81C8.57,5.24,9.03,5.2,9.49,5.16z"/>
				<path class="st14" d="M6.7,16.16c-0.52-0.88-2.41-0.31-2.18-1.62c0.24-1.35,1.83-1.91,2.94-1.64c1.72,0.42,5.16-0.87,4.09,3.21
					C9.93,16.14,8.32,16.15,6.7,16.16z"/>
			</g>
		</g>
	</g>
</g>
<g>
	<defs>
		<path id="SVGID_00000019678602701283743230000014368243155520562338_" d="M7.8,0.18c-3.24,0-6.1,1.95-7.28,4.97
			C0.33,5.64,0.57,6.19,1.06,6.38c0.27,0.11,0.56,0.07,0.8-0.06c0.73-2.52,3.1-4.3,6.04-4.3c0.95,0.01,1.93,0.28,2.83,0.76
			c0.79,0.42,1.02,1.44,0.47,2.14c-0.42,0.53-1.16,0.73-1.76,0.42C8.94,5.09,8.41,4.94,7.9,4.94c-1.75,0-3.22,1.34-3.22,3.08
			c0,1.77,1.53,3.07,3.15,3.07c0.57,0,1.1-0.16,1.59-0.43c0.6-0.33,1.36-0.13,1.78,0.42l0.03,0.04c0.53,0.7,0.3,1.7-0.47,2.11
			c-0.85,0.45-1.83,0.72-2.92,0.72c-2.74,0-5.32-1.73-6.02-4.44C1.58,9.37,1.3,9.33,1.02,9.43c-0.49,0.18-0.75,0.73-0.57,1.22
			c1.12,3.08,4.07,5.15,7.35,5.15c4.31,0,7.81-3.5,7.81-7.81C15.61,3.68,12.1,0.18,7.8,0.18z"/>
	</defs>
	<clipPath id="SVGID_00000064314415895205913750000007578256094462459570_">
		<use xlink:href="#SVGID_00000019678602701283743230000014368243155520562338_"  style="overflow:visible;"/>
	</clipPath>
	<g style="clip-path:url(#SVGID_00000064314415895205913750000007578256094462459570_);">
		<g id="F3hlPS_00000085208669181786497370000004660416553219951511_">
			<g>
				<path class="st3" d="M16.41,16.38c-0.41,0-0.81,0-1.22,0c-0.12-0.5-0.13-1.02-0.11-1.53c0.01-0.29-0.05-0.5-0.34-0.68
					c-0.27-0.17-0.63-0.4-0.62-0.73c0.02-0.68-0.45-0.65-0.87-0.71c-0.23-0.03-0.48-0.03-0.72-0.01c-0.4,0.03-0.66-0.16-0.86-0.48
					c-0.32-0.52-0.55-1.07-0.58-1.69c-0.02-0.38-0.21-0.52-0.57-0.49c-0.01-0.11-0.02-0.21-0.03-0.32c-0.02-0.89-0.23-1.71-0.83-2.4
					C9.56,7.21,9.52,7.05,9.54,6.89c0.04-0.38-0.08-0.64-0.46-0.77C8.96,6.08,8.84,6,8.8,5.87c-0.24-0.66-0.65-1.09-1.4-1.09
					c-0.17,0-0.4-0.04-0.37-0.31C7.05,4.2,7.27,4.2,7.48,4.19C7.76,4.17,8.03,4.23,8.3,4.28c0.11,0.02,0.23,0.01,0.29-0.1
					c0.05-0.09,0.05-0.22-0.03-0.25C7.9,3.69,8.14,3.13,8.1,2.67c-0.02-0.26,0-0.53-0.36-0.58C7.35,2.03,7.5,1.89,7.69,1.72
					c0.22-0.2,0.46-0.44,0.3-0.75c-0.17-0.34-0.5-0.12-0.75-0.08C7.05,0.91,6.86,1,6.68,1.09C6.48,1.18,6.29,1.2,6.1,1.1
					c0.28-0.47,0.82-0.36,1.23-0.56c0.29-0.26,0.65-0.22,0.99-0.23C9.13,0.29,9.63-0.13,9.76-0.9l0.01-0.01
					C10.1-1,10.3-1.21,10.32-1.56c0.31-0.51,0.38-1.09,0.44-1.68c0.37,0,0.74,0,1.11,0c0.1,0.32,0.23,0.67,0.27,0.98
					c0.08,0.61,0.3,0.49,0.63,0.24c-0.01,0.37,0.02,0.76-0.44,0.9c-0.03-0.15,0.07-0.4-0.25-0.36c-0.13,0.02-0.28,0.04-0.28,0.2
					c-0.01,0.31,0.25,0.24,0.43,0.27c0.04,0.07,0.07,0.15,0.11,0.22c-0.01,0.03-0.01,0.07-0.02,0.1c-0.38,0-0.41,0.39-0.64,0.56
					c-0.52-0.13-0.68-0.03-0.62,0.45c0.02,0.22-0.04,0.36-0.17,0.49c-0.48,0.47-0.25,1.21-0.63,1.73c-0.1,0.14,0.1,0.28,0.23,0.4
					c0.43,0.39,0.48,1.03,0.26,1.55c-0.15,0.34-0.51,0.77-0.12,1.13C10.93,5.91,11,6.22,10.98,6.6c-0.01,0.32-0.02,0.65,0.27,0.86
					c0.33,0.23,0.33,0.48,0.16,0.81c-0.16,0.3-0.19,0.69,0.13,0.83c0.36,0.16,0.44,0.39,0.49,0.71c0.05,0.34,0.17,0.55,0.59,0.41
					c0.23-0.08,0.43,0.07,0.56,0.27c0.13,0.19,0.14,0.36-0.06,0.53c-0.16,0.12-0.06,0.25,0.03,0.38c0.25,0.36,0.62,0.58,0.99,0.78
					c0.37,0.2,1.5-0.1,1.74-0.44c0.1-0.14,0.21-0.27,0.34-0.12c0.18,0.21,0.72,0.18,0.58,0.55c-0.2,0.54,0.01,1.05-0.04,1.57
					c-0.08,0.73-0.05,1.44,0.67,1.9C17.06,15.85,16.46,15.74,16.41,16.38z"/>
				<path class="st6" d="M6.77,16.38c-1.37,0-2.73,0-4.1,0c0.22-0.29,0.22-0.65,0.09-0.94c-0.41-0.94-0.1-1.91-0.06-2.84
					c0.03-0.73,0.11-1.6,0.71-2.22c0.04-0.04,0.02-0.14,0.02-0.22c0.04-0.07,0.08-0.14,0.12-0.22C3.71,9.68,4.04,9.53,4.13,9.2
					c0.21-0.01,0.42-0.03,0.64-0.04C4.98,9.2,5.15,9.08,5.34,9C5.86,8.8,6.32,8.98,6.31,9.42c-0.06,1.68,0.37,3.31,0.36,4.98
					C6.66,15.06,6.57,15.73,6.77,16.38z"/>
				<path class="st7" d="M1.45,16.38c-0.07,0-0.15,0-0.22,0c0-0.04,0-0.07,0-0.11c-0.36-0.08-0.43-0.4-0.5-0.66
					c-0.08-0.31-0.23-0.46-0.5-0.64c-0.4-0.26-0.85-0.56-0.88-1.13c0,0,0.03-0.03,0.03-0.03l-0.03,0.03
					c-0.28-0.31-0.57-0.62-0.69-1.11c-0.25,0.5-0.8,0.48-1.18,0.75c-0.33,0.24-0.76,0.47-1.24,0.36l0,0
					c-0.17-0.2-0.52-0.3-0.44-0.66c0.01-0.01,0.03-0.02,0.03-0.03c0-0.03-0.02-0.05-0.03-0.08c-0.02-0.24,0.39-0.45,0.09-0.69
					c-0.38-0.3-0.77-0.64-1.31-0.64c0-0.26,0-0.52,0-0.78c0.39,0.06,0.71-0.11,1.04-0.29c0.6-0.32,0.85-0.21,1.13,0.39
					c0.18,0.38,0.44,0.73,0.77,0.99c0.19,0.15,0.45,0.34,0.61-0.07c0.08-0.22,0.24-0.26,0.45-0.19c0.2,0.06,0.39,0.01,0.5-0.15
					c0.27-0.42,0.63-0.38,0.95-0.17c0.35,0.23,0.71,0.51,0.53,1.04c-0.04,0.04-0.07,0.07-0.11,0.11l-0.02,0.03l0.03-0.02
					c0.04-0.04,0.07-0.07,0.11-0.11c0.17-0.02,0.38,0.03,0.44-0.22l0,0c0.22-0.07,0.43-0.15,0.65-0.22c0.03,0.38-0.07,0.82,0.1,1.12
					c0.52,0.9,0.07,1.98,0.6,2.87c0.07,0.12-0.09,0.23-0.14,0.34c-0.18,0-0.37,0-0.55,0C1.6,16.29,1.52,16.29,1.45,16.38z
					 M1.77,15.93c0,0.02,0,0.03,0,0.05c0.03-0.01,0.05-0.02,0.08-0.03c-0.01-0.01-0.02-0.03-0.03-0.04
					C1.8,15.91,1.78,15.93,1.77,15.93z"/>
				<path class="st8" d="M1.01,12.28c-0.06,0.25-0.27,0.2-0.44,0.22L0.56,12.5c0.18-0.52-0.18-0.81-0.53-1.04
					c-0.32-0.21-0.69-0.25-0.95,0.17c-0.1,0.16-0.29,0.22-0.5,0.15c-0.21-0.07-0.36-0.03-0.45,0.19c-0.16,0.4-0.42,0.22-0.61,0.07
					c-0.33-0.26-0.59-0.61-0.77-0.99c-0.28-0.6-0.53-0.71-1.13-0.39c-0.33,0.18-0.65,0.34-1.04,0.29c0-1.18,0-2.36,0-3.55
					c0.42,0,0.85,0,1.27,0c0.21,0,0.46,0.02,0.47,0.28c0.01,0.42,0.43,0.63,0.5,0.87c0.15,0.52,0.5,0.62,0.86,0.81
					c0.09,0.05,0.18,0.22,0.17,0.33c-0.05,0.45,0.22,0.81,0.32,1.21c0.1,0.39,0.28,0.47,0.62,0.17c0.58-0.51,0.82-1.21,1.09-1.88
					C0.06,8.77,0.4,8.59,0.71,8.37c0.26-0.19,0.4,0.16,0.6,0.26C1.42,8.69,1.55,8.7,1.67,8.74c0.01,0.15,0.02,0.3,0.03,0.46
					c-0.01,0.77-0.03,1.54-0.04,2.31c-0.01,0.01-0.03,0.03-0.03,0.04c0,0.03,0.02,0.06,0.03,0.08c0,0.14,0,0.29,0,0.43
					C1.44,12.13,1.22,12.2,1.01,12.28c-0.01-0.07-0.02-0.14-0.11-0.15c-0.01,0-0.03,0.02-0.03,0.03
					C0.86,12.26,0.94,12.27,1.01,12.28z M-4.54,8.75c0,0.5,0.35,0.98,0.68,0.94C-3.6,9.67-3.6,9.45-3.59,9.28
					c0.02-0.25-0.55-0.95-0.75-0.93C-4.62,8.37-4.5,8.61-4.54,8.75z"/>
				<path class="st9" d="M1.67,8.74C1.55,8.7,1.42,8.69,1.31,8.63c-0.2-0.11-0.33-0.45-0.6-0.26C0.4,8.59,0.06,8.77-0.12,9.2
					c-0.27,0.67-0.5,1.37-1.09,1.88c-0.34,0.3-0.52,0.22-0.62-0.17c-0.1-0.41-0.38-0.76-0.32-1.21c0.01-0.1-0.08-0.28-0.17-0.33
					c-0.36-0.19-0.71-0.3-0.86-0.81c-0.07-0.24-0.49-0.45-0.5-0.87c-0.01-0.26-0.26-0.28-0.47-0.28c-0.42,0-0.85,0-1.27,0
					c0-0.74,0-1.48,0-2.22c0.22,0,0.44,0,0.66,0.01c0.21,0.02,0.48,0.09,0.49,0.28c0.02,0.63,0.68,0.99,0.65,1.64
					c-0.01,0.23,0.14,0.49,0.27,0.71c0.19,0.33,0.55,0.51,0.81,0.2c0.26-0.31,0.58-0.63,0.66-1.07c0-0.15,0-0.3,0-0.45
					C-1.64,6.7-1.26,6.5-1.09,6.84C-1.67,7.39-0.8,7.5-0.76,7.88c0.02,0.21,0.2,0.53,0.52,0.48c0.28-0.04,0.48-0.28,0.55-0.55
					c0.05-0.2,0.18-0.37,0.22-0.55c0.13-0.57,0.64-1,0.58-1.63c0.04-0.07,0.07-0.15,0.11-0.22c0.11-0.02,0.2-0.06,0.28-0.15
					c0.44-0.48,0.44-0.48,0.76,0.09c0.18,0.33,0.49,0.37,0.73,0.07c0.12-0.15,0.23-0.24,0.41-0.17C3.63,5.31,3.81,5.27,4,5.16
					c0.22-0.12,0.46-0.14,0.67,0.03C4.35,5.47,3.83,5.35,3.55,5.73c0,0-0.01,0-0.01,0.01c-0.47,0.14-0.64,0.62-0.99,0.9
					c0.01-0.05,0.01-0.11,0.03-0.16C2.64,6.31,2.7,6.15,2.52,6.03c-0.1-0.07-0.21-0.06-0.3,0.03C2.09,6.21,2.11,6.36,2.2,6.52
					C2.24,6.6,2.3,6.67,2.35,6.75c-0.16,0.19-0.27,0.4-0.23,0.67c-0.01,0.03-0.01,0.07-0.01,0.1C1.79,7.68,1.85,8.01,1.79,8.3
					C1.75,8.44,1.71,8.59,1.67,8.74z M-0.79,9.43c0-0.15-0.07-0.22-0.21-0.18C-1.14,9.29-1.34,9.29-1.36,9.5
					C-1.38,9.66-1.24,9.71-1.1,9.71C-0.91,9.71-0.8,9.61-0.79,9.43z"/>
				<path class="st10" d="M6.77,16.38c-0.2-0.65-0.11-1.32-0.1-1.98c0.01-1.67-0.42-3.31-0.36-4.98C6.32,8.98,5.86,8.8,5.34,9
					C5.15,9.08,4.98,9.2,4.77,9.16c0.16-0.44,0.56-0.38,0.91-0.44c0.18,0,0.36,0,0.54,0.01c0.52,0.14,1.04,0.29,1.57,0.43
					c0.07,0.01,0.13,0.02,0.2,0.03c0.01,0.15,0.04,0.29,0.23,0.32c0.07,0.07,0.15,0.15,0.22,0.22c0.03,0.14,0.11,0.21,0.26,0.19
					c0.03,0,0.06,0.01,0.09,0.02c0.02,0.21,0.08,0.4,0.21,0.56c0.05,0.35-0.27,0.59-0.23,0.95c0.09,0.89-0.17,1.8,0.18,2.68
					c0.03,0.09,0,0.22-0.05,0.32c-0.18,0.35-0.16,0.73-0.11,1.09c0.04,0.31-0.02,0.57-0.13,0.84C8.03,16.38,7.4,16.38,6.77,16.38z"
					/>
				<path class="st10" d="M-4.2,13.16c-0.07,0.37,0.27,0.46,0.44,0.66l-0.02,0.03l0.03-0.02c0.48,0.11,0.9-0.13,1.24-0.36
					c0.38-0.27,0.92-0.25,1.18-0.75c0.12,0.49,0.4,0.8,0.69,1.11l0,0c0.03,0.58,0.48,0.88,0.88,1.13c0.28,0.18,0.42,0.33,0.5,0.64
					c0.07,0.26,0.14,0.59,0.5,0.67l0,0c0,0.04,0,0.07,0,0.11c-0.96,0-1.92,0-2.88,0c0.02-0.43-0.19-0.82-0.49-1.04
					c-0.25-0.2-0.46-0.36-0.6-0.66c-0.09-0.2-0.26-0.38-0.57-0.33c-0.7,0.11-1.41,0.18-2.12,0.27c0-0.96,0-1.92,0-2.88
					c0.54,0,0.92,0.34,1.31,0.64c0.31,0.24-0.1,0.45-0.09,0.69l0,0c-0.03,0.01-0.06,0.02-0.1,0.03C-4.27,13.11-4.23,13.14-4.2,13.16
					L-4.2,13.16z"/>
				<path class="st11" d="M10.54,10.06c0.36-0.03,0.55,0.1,0.57,0.49c0.03,0.62,0.26,1.17,0.58,1.69c0.2,0.32,0.46,0.51,0.86,0.48
					c0.24-0.02,0.48-0.02,0.72,0.01c0.42,0.06,0.89,0.03,0.87,0.71c-0.01,0.33,0.35,0.56,0.62,0.73c0.29,0.18,0.35,0.38,0.34,0.68
					c-0.02,0.51-0.01,1.03,0.11,1.53c-0.63,0-1.26,0-1.88,0c-0.07-0.18-0.15-0.37-0.22-0.55c-0.12-0.29-0.29-0.51-0.65-0.43
					c-0.26-0.05-0.6,0.06-0.68-0.35c0.1-0.27,0.08-0.58,0.36-0.79c0.16-0.11,0-0.29-0.08-0.44c-0.36-0.69-0.95-1.27-0.99-2.12
					c-0.01-0.19-0.1-0.42-0.23-0.55C10.49,10.83,10.53,10.45,10.54,10.06z"/>
				<path class="st5" d="M-1.99-3.24c0.85,0,1.7,0,2.55,0c0.34,0.3,0.66,0.62,1.02,0.88C1.8-2.2,2.08-2.09,2.36-2.16
					c0.36-0.1,0.73-0.07,1.09-0.06c-0.03,0.4-0.34,0.33-0.58,0.32C2-1.97,1.28-1.28,0.39-1.39C0.24-1.41,0.1-1.18,0.01-1.02
					C-0.03-0.98-0.07-0.95-0.1-0.91l0,0c-0.33-0.03-0.34,0.25-0.44,0.44l0,0c-0.1,0.06-0.12,0.15-0.11,0.25
					c-0.02,0.03-0.05,0.05-0.08,0.07c-0.15,0-0.24,0.07-0.25,0.23l0,0c-0.04,0.03-0.08,0.07-0.12,0.1
					c-0.36,0.13-0.59,0.48-0.97,0.58c-0.15-0.08-0.27-0.22-0.45-0.23c0-0.07,0-0.15,0-0.22c0.21-0.02,0.31-0.13,0.33-0.33
					C-2.08-0.04-2-0.11-1.98-0.24c0.04-0.04,0.07-0.08,0.11-0.11c0.04-0.04,0.07-0.07,0.11-0.11c0.04-0.04,0.07-0.07,0.11-0.11
					c0.07-0.04,0.15-0.07,0.22-0.11c0.04-0.07,0.07-0.15,0.11-0.22c0.12-0.04,0.34,0.04,0.25-0.28c-0.1,0.11-0.18,0.19-0.25,0.28
					c-0.04,0.07-0.07,0.15-0.11,0.22C-1.5-0.65-1.58-0.61-1.65-0.58C-1.69-0.54-1.73-0.5-1.76-0.46C-1.8-0.43-1.84-0.39-1.87-0.35
					c-0.04,0.04-0.08,0.07-0.11,0.11C-2.06-0.17-2.13-0.1-2.21-0.02C-2.32,0.05-2.43,0.13-2.54,0.2c-0.03-0.22-0.12-0.45,0.1-0.65
					c0.07-0.06,0.08-0.21-0.09-0.23c0-0.08-0.01-0.17-0.01-0.25c0-0.11,0-0.21,0-0.32c0.06,0.06,0.12,0.12,0.19,0.18
					c0.01-0.35,0.41-0.53,0.38-0.92C-2.01-2.4-1.99-2.82-1.99-3.24z M-1.37-1.18C-1.38-1.2-1.39-1.23-1.41-1.26
					c-0.03,0.02-0.06,0.03-0.08,0.05c-0.03,0.04-0.03,0.1,0.04,0.09C-1.42-1.12-1.4-1.16-1.37-1.18z"/>
				<path class="st11" d="M12.32-1.12c0.47-0.14,0.43-0.53,0.44-0.9c0.17-0.34,0.55-0.4,0.83-0.57c0.27-0.16,0.42-0.33,0.38-0.65
					c0.3,0,0.59,0,0.89,0c0.02,0.52,0.27,0.43,0.57,0.22c0.21,0.43-0.22,0.6-0.36,0.88c-0.22,0.18-0.16,0.53-0.42,0.68
					c-0.05,0.02-0.13,0.03-0.15,0.07c-0.47,1.14-0.54,2.29-0.09,3.45c0.1,0.25,0.27,0.43,0.55,0.49c0,0.03,0,0.05,0,0.08
					c-0.04,0.14,0.06,0.1,0.13,0.1c0.04,0,0.08-0.01,0.12-0.01c0.03,0.04,0.06,0.09,0.1,0.13c-0.01,0.08-0.01,0.15-0.02,0.23
					c-0.59-0.32-0.91-0.22-1.15,0.38c-0.07,0.17-0.05,0.32,0.08,0.45c0.14,0.14,0.22-0.01,0.33-0.07c0.13-0.06,0.23-0.28,0.42-0.09
					c-0.07,0.17-0.15,0.35-0.22,0.52c-0.11,0.32-0.41,0.3-0.67,0.35c-0.01-0.17-0.11-0.16-0.23-0.1c-0.07,0-0.14,0-0.21,0
					c0.11-0.23,0.02-0.33-0.22-0.37c-0.12-0.02-0.35-0.06-0.23-0.27c0.43-0.78,0.22-1.61,0.15-2.41c-0.03-0.4,0.19-0.95-0.37-1.24
					c-0.12-0.06,0.04-0.19,0.13-0.24c0.32-0.21,0.46-0.49,0.45-0.88c-0.01-0.19,0.16-0.41-0.09-0.54c-0.25-0.13-0.36,0.07-0.49,0.22
					c-0.17,0.2-0.38,0.34-0.65,0.39c-0.04-0.07-0.07-0.15-0.11-0.22C12.25-1.04,12.29-1.08,12.32-1.12z"/>
				<path class="st7" d="M8.65,16.38c0.11-0.27,0.17-0.53,0.13-0.84c-0.05-0.36-0.07-0.74,0.11-1.09c0.05-0.09,0.09-0.23,0.05-0.32
					c-0.35-0.88-0.09-1.79-0.18-2.68c-0.04-0.36,0.28-0.6,0.23-0.95c0.07,0,0.15,0.01,0.22,0.01c0.01,0.1,0.02,0.2,0.02,0.3
					c0.06,0.23,0.08,0.48,0.19,0.69c0.25,0.5,0.51,1,0.54,1.55c0.02,0.46,0.21,0.77,0.58,1c0.01,0.15,0.01,0.29,0.02,0.44
					c-0.05,0.28,0.07,0.49,0.26,0.68c0.12,0.12,0.24,0.3,0.02,0.4c-0.39,0.18-0.28,0.51-0.3,0.81C9.91,16.38,9.28,16.38,8.65,16.38z
					"/>
				<path class="st10" d="M1.66,11.5c0.01-0.77,0.03-1.54,0.04-2.31c0.06-0.04,0.18-0.07,0.18-0.11C1.91,8.49,2.33,8,2.34,7.4
					c0.11-0.12,0.22-0.23,0.33-0.35c0.06,0.11,0.22,0.19,0.16,0.33c-0.32,0.68-0.15,1.4-0.14,2.1c0,0.26-0.4,0.82,0.38,0.6
					c0.02,0.07,0.03,0.14,0.05,0.21c-0.49-0.05-0.49,0.39-0.67,0.66c-0.02,0.03-0.11,0.05-0.03,0.11c0.01-0.03,0.02-0.07,0.03-0.1
					c0.34-0.1,0.56-0.33,0.66-0.67c0.11-0.04,0.21-0.08,0.32-0.12c-0.01,0.07,0.02,0.18-0.02,0.22C2.81,11,2.73,11.87,2.7,12.6
					c-0.04,0.93-0.35,1.9,0.06,2.84c0.13,0.29,0.14,0.65-0.09,0.94c-0.15,0-0.3,0-0.44,0c0.05-0.11,0.21-0.22,0.14-0.34
					c-0.53-0.88-0.08-1.96-0.6-2.87c-0.17-0.29-0.08-0.74-0.1-1.12c0-0.14,0-0.29,0-0.43C1.66,11.58,1.66,11.54,1.66,11.5z
					 M2.11,11.35l0.03-0.02l-0.03-0.02L2.11,11.35z"/>
				<path class="st9" d="M15.07-2.14c0.14-0.29,0.57-0.45,0.36-0.88c0-0.07-0.01-0.15-0.01-0.22c0.63,0,1.26,0,1.88,0
					c-0.33,0.94-0.41,1.9-0.22,2.88c-0.01,0.01-0.03,0.02-0.03,0.03c0,0.03,0.02,0.05,0.03,0.08c0.11,0.19,0.22,0.38,0.33,0.58
					c-0.04,0.07-0.07,0.13-0.11,0.2c0,0-0.01,0-0.01,0c-0.6-0.17-0.51,0.19-0.43,0.55l-0.01,0.01c-0.03,0.03-0.06,0.06-0.1,0.1
					c-0.11-0.03-0.23-0.07-0.34-0.1c-0.37-0.07,0.05-0.46-0.26-0.61c-0.4-0.19-0.25-0.63-0.11-0.87c0.41-0.72,0.1-1.4,0-2.1
					c-0.02-0.1-0.07-0.22-0.21-0.22c-0.13,0-0.18,0.12-0.23,0.21C15.5-2.27,15.36-2.1,15.07-2.14z"/>
				<path class="st8" d="M10.54,16.38c0.02-0.3-0.09-0.62,0.3-0.81c0.22-0.1,0.1-0.29-0.02-0.4c-0.2-0.19-0.32-0.4-0.26-0.68
					c0.41,0.04,0.6,0.46,0.98,0.55c0.08,0,0.15,0.01,0.23,0.01c0.08,0.4,0.42,0.3,0.68,0.35c0.22,0.31,0.24,0.64,0.1,0.99
					C11.87,16.38,11.2,16.38,10.54,16.38z"/>
				<path class="st9" d="M12.53,16.38c0.14-0.35,0.13-0.68-0.1-0.99c0.36-0.08,0.53,0.14,0.65,0.43c0.08,0.18,0.15,0.37,0.22,0.55
					C13.05,16.38,12.79,16.38,12.53,16.38z"/>
				<path class="st16" d="M17.63,15.61c-0.07,0.01-0.14,0.02-0.21,0.03c-0.72-0.46-0.75-1.17-0.67-1.9
					c0.06-0.52-0.16-1.03,0.04-1.57c0.14-0.36-0.4-0.33-0.58-0.55c-0.13-0.15-0.24-0.02-0.34,0.12c-0.24,0.35-1.37,0.64-1.74,0.44
					c-0.37-0.2-0.73-0.42-0.99-0.78c-0.09-0.13-0.18-0.26-0.03-0.38c0.21-0.16,0.19-0.34,0.06-0.53c-0.13-0.2-0.33-0.34-0.56-0.27
					c-0.41,0.14-0.54-0.07-0.59-0.41c-0.05-0.32-0.12-0.55-0.49-0.71c-0.32-0.14-0.29-0.53-0.13-0.83c0.17-0.33,0.17-0.58-0.16-0.81
					c-0.29-0.21-0.28-0.54-0.27-0.86c0.01-0.38-0.05-0.69-0.36-0.99c-0.39-0.36-0.03-0.79,0.12-1.13c0.22-0.52,0.18-1.16-0.26-1.55
					c-0.13-0.11-0.33-0.26-0.23-0.4c0.37-0.52,0.15-1.25,0.63-1.73c0.14-0.13,0.2-0.28,0.17-0.49c-0.05-0.48,0.1-0.58,0.62-0.45
					c-0.07,0.33-0.16,0.65-0.14,0.99c-0.14,0.17-0.59,0.27-0.11,0.56c0,0.48,0,0.96,0,1.43c-0.14,0.25-0.08,0.4,0.21,0.45
					c-0.08,0.24-0.07,0.46,0.13,0.65c-0.02,0.32-0.04,0.66,0.36,0.76c0.33,0.08,0.45,0.2,0.25,0.52c-0.08,0.13,0.01,0.45,0.14,0.31
					c0.31-0.36,0.68-0.15,1.01-0.24c0.04,0,0.08,0,0.12,0c0,0,0,0,0,0c0,0.16,0.01,0.31,0.21,0.34c0.04,0.2,0.17,0.34,0.34,0.43
					c0.04,0.19-0.18,0.45,0.18,0.55c0.29,0.07,0.77-0.01,0.81,0.27c0.05,0.29-0.52,0.12-0.68,0.4c0.02,0.12,0.13,0.16,0.21,0.15
					c0.66-0.03,0.63,0.41,0.56,0.85c-0.04,0.27-0.07,0.56-0.19,0.8c-0.14,0.28-0.05,0.44,0.13,0.63c0.22,0.24,0.53,0.41,0.62,0.75
					c0.04,0.15,0.02,0.36,0.26,0.34c0.2-0.02,0.17-0.21,0.21-0.34c0.17-0.48,0.46-0.58,0.93-0.33c0.16,0.08,0.29,0.15,0.42-0.06
					c0.11-0.18,0.29-0.14,0.43-0.03c0.21,0.16,0.4,0.35,0.39,0.63c-0.01,0.21-0.19,0.25-0.36,0.26c-0.16,0.02-0.37,0.01-0.34,0.25
					c0.03,0.22,0.24,0.18,0.4,0.19c0.11,0.01,0.22,0,0.33,0l0,0c0.14,0.27,0.45-0.25,0.57,0.12c-0.01,0.07-0.01,0.14-0.02,0.22l0,0
					c-0.07,0.01-0.17-0.01-0.11,0.12c0,0.04,0,0.07,0,0.11c-0.08,0.03-0.15,0.06-0.23,0.1c-0.01-0.01-0.02-0.01-0.04-0.02
					c0.01,0.01,0.02,0.01,0.03,0.02c0.04,0.26-0.35,0.09-0.33,0.33c0,0,0,0,0,0c-0.7,0.25-0.79,0.67-0.33,1.55
					c-0.07,0.01-0.16,0.03-0.14,0.11c0.01,0.04,0.09,0.08,0.14,0.11c-0.1,0.17-0.44,0.4,0.1,0.39c0.23-0.01,0.22,0.13,0.23,0.28l0,0
					C17.89,14.83,17.63,15.08,17.63,15.61z M11.29,4.88c-0.24,0.02-0.3,0.18-0.3,0.39c0,0.18,0.03,0.34,0.26,0.35
					c0.26,0.01,0.29-0.18,0.29-0.37C11.53,5.07,11.52,4.9,11.29,4.88z"/>
				<path class="st11" d="M-1.99,5.18c0.15-0.42-0.09-0.57-0.43-0.66c0.19-0.4-0.09-0.92,0.36-1.28C-1.94,3.16-2.19,3.11-2.3,3.1
					c0.01-0.28,0.11-0.48,0.44-0.45c0.15,0.26,0.27-0.1,0.41-0.02c0.02,0.04,0.04,0.08,0.07,0.12c0.02-0.04,0.05-0.07,0.07-0.11
					c0.03-0.01,0.06-0.02,0.09-0.03C-1.23,2.6-1.24,2.59-1.25,2.57C-1.28,2.59-1.3,2.61-1.33,2.63c-0.04,0-0.08-0.01-0.12-0.01
					c0.04-0.1,0.08-0.2,0.12-0.31c0.08-0.07,0.15-0.15,0.23-0.22c0.16-0.02,0.21,0.14,0.32,0.21c0.02,0.57,0.51,0.25,0.76,0.37
					c0.21,0.1,0.38-0.11,0.48-0.33C0.69,1.8,0.91,1.27,1.49,1c0.2-0.09,0.19-0.29,0.17-0.48c0-0.07,0-0.14,0-0.21
					c0.11,0,0.22,0.01,0.33,0.01C1.96,0.65,1.9,0.98,1.9,1.3c0,0.31-0.13,0.69,0.37,0.79c0.46,0.1,0.92,0.19,1.18-0.35
					C3.6,1.44,3.87,1.48,4.06,1.6c0.37,0.22,0.72,0.11,0.99-0.07C5.38,1.31,5.74,1.21,6.1,1.1c0.2,0.1,0.38,0.09,0.58-0.01
					C6.86,1,7.05,0.91,7.24,0.88c0.25-0.04,0.57-0.26,0.75,0.08c0.16,0.31-0.08,0.56-0.3,0.75C7.5,1.89,7.35,2.03,7.74,2.09
					C8.11,2.14,8.08,2.4,8.1,2.67c0.04,0.46-0.2,1.03,0.46,1.27c0.09,0.03,0.08,0.16,0.03,0.25C8.53,4.29,8.41,4.3,8.3,4.28
					C8.03,4.23,7.76,4.17,7.48,4.19C7.27,4.2,7.05,4.2,7.02,4.47c-0.03,0.27,0.21,0.3,0.37,0.31c0.76,0.01,1.17,0.43,1.4,1.09
					C8.84,6,8.96,6.08,9.08,6.12c0.38,0.13,0.5,0.39,0.46,0.77C9.52,7.05,9.56,7.21,9.68,7.35c0.6,0.69,0.81,1.51,0.83,2.4
					c-0.29-0.02-0.26-0.4-0.51-0.47C9.88,9.02,9.77,8.76,9.66,8.5C9.56,8.11,9.51,7.7,9.21,7.4C9.07,6.79,8.54,6.43,8.22,5.93
					C7.93,5.47,7.55,5.18,6.99,5.19C6.95,5.15,6.92,5.11,6.88,5.07C6.75,4.76,6.55,4.82,6.33,4.96c-0.07,0-0.14,0-0.21-0.01
					C5.88,4.58,5.52,4.76,5.22,4.78C4.97,4.79,4.73,4.91,4.47,4.8c0.37-0.49,0.36-0.49-0.22-0.64C3.94,4.08,3.58,4.15,3.31,3.91
					c-0.08-0.07-0.2-0.14-0.14-0.26c0.06-0.13,0.18-0.09,0.28-0.03c0.36,0.2,0.42-0.03,0.43-0.3c0.01-0.22,0.01-0.44,0-0.66
					c0-0.14,0.05-0.33-0.13-0.39C3.57,2.2,3.51,2.38,3.47,2.52C3.4,2.71,3.25,2.81,3.1,2.91C2.81,3.09,2.66,3.34,2.51,3.66
					C2.32,4.05,2.29,4.63,1.64,4.71C1.37,4.75,1.16,5.06,1.23,5.41C1.19,5.48,1.15,5.56,1.12,5.63c-0.3-0.02-0.33,0.52-0.7,0.34
					c0.01-0.08,0.02-0.15,0.02-0.23c0.3-0.4,0.42-1.42,0.09-1.8C0.36,3.74,0.59,3.29,0.13,3.3c-0.22-0.29-0.42-0.24-0.55,0.06
					C-0.54,3.63-0.73,3.84-0.9,4.07c-0.1-0.3-0.21-0.59,0.05-0.87C-0.8,3.14-0.81,3.06-0.87,3c-0.08-0.07-0.15-0.05-0.24,0.01
					c-0.48,0.32-0.54,1.14-0.12,1.51c-0.33,0.3-0.42,0.81-0.87,1c0-0.04,0.01-0.07,0-0.11l0,0C-2.01,5.36-1.87,5.33-1.99,5.18z
					 M-1.76,3.2c0.04-0.05,0.08-0.09,0.13-0.14c-0.01-0.01-0.03-0.02-0.04-0.03C-1.71,3.08-1.74,3.13-1.76,3.2l-0.03,0.03L-1.76,3.2
					z"/>
				<path class="st13" d="M6.1,1.1C5.74,1.21,5.38,1.31,5.05,1.53C4.78,1.71,4.43,1.82,4.06,1.6C3.87,1.48,3.6,1.44,3.45,1.75
					C3.19,2.28,2.73,2.19,2.27,2.1C1.77,1.99,1.89,1.61,1.9,1.3c0-0.33,0.06-0.66,0.1-0.98c0.3-0.04,0.43-0.33,0.67-0.46
					c0.31,0.02,0.61,0.02,0.76-0.33c0.3,0,0.6-0.01,0.91-0.01l0.05,0l0.05,0C4.7-0.49,4.98-0.39,5.22-0.58c0.14,0,0.29,0,0.43,0
					c0,0,0.01,0.01,0.01,0.01c0.21,0.29,0.2,0.53-0.16,0.7C5.38,0.19,5.23,0.29,5.29,0.47c0.07,0.2,0.26,0.18,0.42,0.17
					C6,0.63,6.29,0.58,6.54,0.42c0.26,0,0.52,0,0.78-0.01c0,0.04,0,0.08,0,0.13C6.92,0.74,6.38,0.63,6.1,1.1z"/>
				<path class="st15" d="M12.32-0.79c0.26-0.05,0.48-0.19,0.65-0.39c0.13-0.15,0.25-0.35,0.49-0.22c0.25,0.13,0.09,0.35,0.09,0.54
					c0.01,0.38-0.13,0.67-0.45,0.88c-0.08,0.05-0.25,0.18-0.13,0.24c0.56,0.29,0.34,0.84,0.37,1.24c0.07,0.8,0.28,1.63-0.15,2.41
					c-0.12,0.21,0.11,0.25,0.23,0.27c0.24,0.05,0.33,0.14,0.22,0.37c-0.01,0.15-0.01,0.29-0.02,0.44c-0.69-0.01-0.93-0.66-1.41-0.99
					c-0.49-0.33-0.2-0.91-0.33-1.36c0.17-0.01,0.16,0.3,0.42,0.2c-0.03-0.53,0.05-1.07-0.06-1.67c-0.28,0.27,0,0.68-0.37,0.82
					c-0.05-0.35,0-0.69,0.11-1.03c0.18-0.53,0.41-1.06,0.31-1.64C12.31-0.72,12.32-0.76,12.32-0.79z"/>
				<path class="st15" d="M9.21,7.4c0.3,0.3,0.35,0.71,0.45,1.1C9.22,8.58,9.11,8.81,9.33,9.2c0.13,0.22,0.25,0.44,0.38,0.66
					c0.06,0.1,0.11,0.28,0.26,0.23c0.2-0.07,0.08-0.24,0.06-0.38C10.01,9.57,10.01,9.42,10,9.28c0.26,0.06,0.22,0.45,0.51,0.47
					c0.01,0.11,0.02,0.21,0.03,0.32c0,0.38-0.05,0.76,0.28,1.08c0.13,0.13,0.22,0.36,0.23,0.55c0.03,0.85,0.63,1.43,0.99,2.12
					c0.08,0.15,0.24,0.32,0.08,0.44c-0.29,0.21-0.26,0.52-0.36,0.79c-0.08,0-0.15-0.01-0.23-0.01c-0.11-0.65-0.12-1.34-0.69-1.82
					c-0.36-0.31-0.53-0.69-0.56-1.2c-0.02-0.36-0.17-0.79-0.62-0.96c-0.14-0.08-0.28-0.17-0.42-0.25c-0.01-0.1-0.02-0.2-0.02-0.3
					c0.15-0.23-0.19-0.35-0.11-0.56c-0.1-0.36-0.05-0.84-0.66-0.78C8.4,9.13,8.36,9.09,8.33,9.06c-0.01-0.2,0.09-0.34,0.21-0.49
					C8.82,8.22,9.11,7.86,9.21,7.4z"/>
				<path class="st16" d="M6.54,0.42C6.29,0.58,6,0.63,5.71,0.64C5.55,0.64,5.35,0.66,5.29,0.47C5.23,0.29,5.38,0.19,5.5,0.13
					c0.36-0.17,0.37-0.41,0.16-0.7c0.47-0.08,0.95-0.12,1.4-0.26c0.38-0.11,0.63,0.04,0.81,0.28c0.34,0.45,0.71,0.33,1.1,0.13
					C9.25-0.56,9.44-0.84,9.76-0.9C9.63-0.13,9.13,0.29,8.32,0.31C7.97,0.31,7.61,0.27,7.32,0.54c0-0.04,0-0.08,0-0.13
					C7.5-0.25,6.94-0.04,6.66-0.11C6.49-0.15,6.23-0.06,6.19,0.15C6.15,0.37,6.46,0.27,6.54,0.42z"/>
				<path class="st11" d="M11.89,2.63c0.14,0.45-0.16,1.03,0.33,1.36c0.47,0.32,0.72,0.97,1.41,0.99c0,0.11,0.01,0.22,0.01,0.33
					c-0.04,0-0.08,0-0.12,0c-0.67-0.33-1.14-0.93-1.76-1.35c-0.19-0.19-0.2-0.41-0.13-0.65c0.01-0.19,0.04-0.38-0.21-0.45
					c0-0.48,0-0.96,0-1.43c0.15-0.16,0.1-0.37,0.11-0.56c-0.03-0.34,0.07-0.66,0.14-0.99c0.23-0.17,0.26-0.56,0.64-0.56
					c0.1,0.59-0.12,1.11-0.31,1.64c-0.12,0.34-0.16,0.68-0.11,1.03C11.89,2.2,11.89,2.41,11.89,2.63z"/>
				<path class="st14" d="M18.52,11.39c-0.11,0-0.22,0.01-0.33,0c-0.16-0.01-0.37,0.04-0.4-0.19c-0.03-0.24,0.17-0.24,0.34-0.25
					c0.18-0.02,0.36-0.06,0.36-0.26c0.01-0.28-0.18-0.48-0.39-0.63c-0.14-0.11-0.32-0.15-0.43,0.03c-0.13,0.2-0.26,0.14-0.42,0.06
					c-0.47-0.25-0.76-0.15-0.93,0.33c-0.05,0.13-0.01,0.32-0.21,0.34c-0.24,0.02-0.22-0.19-0.26-0.34c-0.09-0.34-0.4-0.52-0.62-0.75
					c-0.18-0.19-0.27-0.35-0.13-0.63c0.12-0.24,0.15-0.53,0.19-0.8c0.06-0.44,0.1-0.87-0.56-0.85c-0.08,0-0.18-0.03-0.21-0.15
					c0.16-0.28,0.73-0.11,0.68-0.4c-0.05-0.28-0.53-0.2-0.81-0.27c-0.35-0.09-0.14-0.36-0.18-0.55c0.31,0.2,0.53-0.17,0.81-0.14
					c0.1,0,0.2,0,0.3,0c0,0.05,0.01,0.1,0.01,0.14c-0.05,0.07-0.15,0.18-0.14,0.21c0.09,0.17,0.27,0.12,0.38,0.05
					c0.29-0.18,0.56-0.4,0.84-0.61c0.48-0.09,0.65-0.61,1-0.79c0.51-0.26,0.41-0.44,0.13-0.74c0.07-0.01,0.14-0.02,0.21-0.04
					c0.08-0.07,0.15-0.14,0.23-0.22c0.04-0.01,0.07-0.02,0.1-0.03c-0.01,0.26,0.12,0.32,0.34,0.26c-0.04,0.07-0.08,0.15-0.11,0.22
					c-0.02,0.02-0.04,0.05-0.06,0.07c0.02,0.01,0.03,0.02,0.05,0.03c0.01-0.03,0.01-0.06,0.02-0.09c0.04,0,0.08,0.01,0.12,0.01
					c0.13,0.23,0.03,0.39-0.17,0.5c-0.13,0.07-0.29,0.12-0.33,0.27c-0.12,0.43-0.99,0.67-0.44,1.22c0.34,0.35,0.31,0.92,0.85,1.15
					c0.36,0.15,0.54,0.64,1.03,0.66c0.15,0,0.14,0.19,0.17,0.31c0.07,0.29,0.12,0.58,0.46,0.69c0.16,0.05,0.23,0.22,0.15,0.36
					c-0.1,0.17-0.22,0.02-0.33-0.02c-0.12-0.05-0.27-0.09-0.34,0.06c-0.07,0.14,0.09,0.17,0.16,0.24c0.38,0.42,0.53,0.99,0.93,1.4
					c0.09,0.09,0.14,0.21,0.29,0.23c-0.16,0.22-0.03,0.44-0.01,0.66c-0.1,0.01-0.21,0.02-0.31,0.03c-0.01-0.01-0.03-0.03-0.04-0.04
					c-0.04-0.25-0.18-0.13-0.3-0.08c-0.04-0.2-0.21-0.31-0.34-0.45c-0.19-0.49-0.47-0.31-0.76-0.1
					C18.97,11.14,18.66,11.66,18.52,11.39c0.04-0.02,0.09-0.04,0.13-0.07c-0.02-0.02-0.04-0.04-0.06-0.06
					C18.56,11.31,18.54,11.35,18.52,11.39z"/>
				<path class="st7" d="M3.11,10.28c-0.02-0.07-0.03-0.14-0.05-0.21c-0.78,0.22-0.38-0.34-0.38-0.6c-0.01-0.7-0.18-1.41,0.14-2.1
					c0.07-0.14-0.1-0.22-0.16-0.33c0.15-0.53,0.72-0.79,0.88-1.32c0,0,0.01,0,0.01,0c0.62-0.1,0.96,0.18,1.09,0.77
					C4.68,6.66,4.72,6.82,4.8,6.97C4.97,7.3,5.02,7.58,4.7,7.89c-0.29,0.3-0.14,0.56,0.29,0.61C5.23,8.54,5.52,8.4,5.67,8.72
					c-0.34,0.07-0.75,0-0.91,0.44C4.55,9.17,4.34,9.19,4.13,9.2c-0.47,0.03-0.7,0.26-0.58,0.75c-0.04,0.07-0.08,0.14-0.12,0.22
					C3.33,10.21,3.22,10.25,3.11,10.28L3.11,10.28z"/>
				<path class="st10" d="M3.55,9.95C3.43,9.46,3.65,9.24,4.13,9.2C4.04,9.53,3.71,9.68,3.55,9.95z"/>
				<path class="st10" d="M1.77,15.93c0.02-0.01,0.03-0.02,0.05-0.02c0.01,0,0.02,0.02,0.03,0.04c-0.03,0.01-0.05,0.02-0.08,0.03
					C1.77,15.97,1.77,15.95,1.77,15.93z"/>
				<path class="st8" d="M0.57,12.5c-0.04,0.04-0.07,0.07-0.11,0.11l-0.01-0.01C0.49,12.57,0.52,12.53,0.57,12.5
					C0.56,12.5,0.57,12.5,0.57,12.5z"/>
				<polygon class="st8" points="0.45,12.61 0.42,12.64 0.45,12.61 				"/>
				<path class="st7" d="M2.34,7.4C2.33,8,1.91,8.49,1.89,9.08c0,0.04-0.12,0.07-0.18,0.11C1.7,9.04,1.68,8.89,1.67,8.74
					C1.71,8.59,1.75,8.44,1.79,8.3c0.26-0.2,0.3-0.49,0.32-0.79c0-0.03,0.01-0.07,0.01-0.1C2.19,7.41,2.27,7.41,2.34,7.4z"/>
				<path class="st7" d="M1.01,12.28c-0.07-0.01-0.14-0.02-0.15-0.11c0-0.01,0.02-0.03,0.03-0.03C0.99,12.14,0.99,12.21,1.01,12.28
					C1.01,12.28,1.01,12.28,1.01,12.28z"/>
				<path class="st7" d="M1.66,11.5c0,0.04,0,0.08,0,0.12c-0.01-0.03-0.02-0.05-0.03-0.08C1.63,11.52,1.65,11.51,1.66,11.5z"/>
				<path class="st8" d="M5.67,8.72C5.52,8.4,5.23,8.54,4.99,8.51C4.56,8.46,4.41,8.19,4.7,7.89C5.02,7.58,4.97,7.3,4.8,6.97
					C4.72,6.82,4.68,6.66,4.64,6.5C4.51,5.91,4.17,5.63,3.55,5.73c0.28-0.38,0.8-0.26,1.12-0.54c0.18-0.01,0.36-0.01,0.53-0.02
					c0.37-0.02,0.76,0.1,1.12-0.08C6.51,5.09,6.7,5.08,6.88,5.07c0.04,0.04,0.07,0.08,0.11,0.12c0.1,0.3,0.43,0.24,0.63,0.39
					c0.17,0.12,0.31,0.22,0.2,0.43C7.73,6.2,7.6,6.32,7.38,6.18C7.27,6.11,7.13,6.04,7.04,6.19C6.95,6.35,6.96,6.55,7.11,6.65
					C7.54,6.91,7.48,7.36,7.5,7.74c0.03,0.57,0.3,1.08,0.83,1.32C8.36,9.09,8.4,9.13,8.44,9.17C8.39,9.4,8.62,9.52,8.66,9.72
					C8.58,9.72,8.51,9.73,8.43,9.73C8.36,9.66,8.28,9.58,8.21,9.51c0-0.16-0.03-0.3-0.23-0.32c-0.07-0.01-0.13-0.02-0.2-0.03
					C7.49,8.66,6.92,8.51,6.21,8.72C6.03,8.72,5.85,8.72,5.67,8.72z"/>
				<path class="st18" d="M0.44,5.74C0.43,5.82,0.43,5.89,0.42,5.97C-0.06,6.31-0.33,7-1.09,6.84C-1.26,6.5-1.64,6.7-1.87,6.52
					c-0.1-0.33-0.64-0.13-0.67-0.56l0,0c0.14-0.01,0.22-0.08,0.22-0.22l0,0C-2.18,5.73-2.1,5.66-2.1,5.52l0,0
					c0.45-0.2,0.54-0.7,0.87-1c0.08-0.07,0.16-0.15,0.24-0.22c0.02,0.04,0.04,0.08,0.07,0.12C-0.9,4.4-0.88,4.38-0.86,4.36
					C-0.9,4.34-0.95,4.32-0.99,4.3c0.03-0.08,0.06-0.16,0.09-0.24c0.17-0.23,0.37-0.44,0.48-0.71c0.13-0.3,0.33-0.35,0.55-0.06
					C0,3.44-0.21,3.51-0.22,3.74c-0.03,0.01-0.06,0.02-0.09,0.03C-0.3,3.78-0.29,3.8-0.28,3.81c0.02-0.02,0.05-0.04,0.07-0.06
					c0.2-0.12,0.34-0.16,0.42,0.15c0.08,0.29,0.1,0.56-0.03,0.83C0.12,4.87,0.07,5.04,0.34,4.96l0.01,0.01
					C0.28,5.23,0.5,5.53,0.23,5.77C0.21,5.78,0.37,5.75,0.44,5.74z"/>
				<path class="st15" d="M5.21,5.17C5.03,5.18,4.85,5.19,4.67,5.19C4.46,5.02,4.22,5.04,4,5.16c-0.19,0.1-0.37,0.15-0.58,0.08
					C3.24,5.17,3.13,5.27,3.01,5.41c-0.25,0.3-0.55,0.26-0.73-0.07C1.96,4.78,1.95,4.77,1.51,5.26C1.43,5.34,1.34,5.39,1.23,5.41
					C1.16,5.06,1.37,4.75,1.64,4.71c0.66-0.09,0.69-0.67,0.88-1.06c0.15-0.32,0.3-0.57,0.58-0.75c0.15-0.1,0.31-0.2,0.37-0.39
					c0.05-0.13,0.1-0.32,0.29-0.26C3.93,2.32,3.88,2.5,3.89,2.65c0.01,0.22,0.01,0.44,0,0.66c-0.01,0.27-0.07,0.51-0.43,0.3
					c-0.1-0.06-0.22-0.1-0.28,0.03C3.11,3.77,3.23,3.83,3.31,3.91c0.27,0.25,0.63,0.17,0.94,0.25C4.83,4.31,4.85,4.32,4.47,4.8
					c0.26,0.1,0.5-0.01,0.74-0.03c0.3-0.02,0.66-0.2,0.89,0.18C5.81,5.05,5.43,4.79,5.21,5.17z"/>
				<path class="st15" d="M-1.09,6.84C-0.33,7-0.06,6.31,0.42,5.97c0.37,0.18,0.4-0.36,0.7-0.34c0.06,0.63-0.45,1.06-0.58,1.63
					C0.49,7.44,0.36,7.61,0.31,7.81C0.24,8.08,0.04,8.32-0.24,8.36c-0.31,0.05-0.49-0.27-0.52-0.48C-0.8,7.5-1.67,7.39-1.09,6.84z"
					/>
				<path class="st8" d="M2.34,7.4c-0.07,0-0.14,0-0.21,0.01C2.08,7.15,2.19,6.94,2.35,6.75c0.07-0.04,0.14-0.07,0.21-0.11
					c0.35-0.28,0.51-0.76,0.99-0.9C3.39,6.27,2.82,6.52,2.67,7.05C2.56,7.17,2.45,7.29,2.34,7.4z"/>
				<path class="st15" d="M2.56,6.63C2.49,6.67,2.42,6.71,2.35,6.75C2.3,6.67,2.24,6.6,2.2,6.52C2.11,6.36,2.09,6.21,2.22,6.07
					c0.09-0.09,0.2-0.1,0.3-0.03C2.7,6.15,2.64,6.31,2.59,6.47C2.57,6.53,2.57,6.58,2.56,6.63z"/>
				<path class="st8" d="M2.11,7.51C2.09,7.81,2.05,8.1,1.79,8.3C1.85,8.01,1.79,7.68,2.11,7.51z"/>
				<path class="st7" d="M6.21,8.72c0.7-0.22,1.28-0.06,1.57,0.43C7.26,9.01,6.74,8.87,6.21,8.72z"/>
				<path class="st9" d="M8.66,9.72C8.62,9.52,8.39,9.4,8.44,9.17c0.6-0.06,0.55,0.42,0.66,0.78c-0.11,0-0.21,0-0.32,0
					C8.75,9.94,8.72,9.93,8.69,9.92C8.68,9.86,8.67,9.79,8.66,9.72z"/>
				<path class="st8" d="M8.78,9.95c0.11,0,0.21,0,0.32,0c-0.08,0.21,0.26,0.34,0.11,0.56c-0.07,0-0.15-0.01-0.22-0.01
					C8.85,10.34,8.79,10.15,8.78,9.95z"/>
				<path class="st7" d="M7.98,9.18c0.2,0.02,0.23,0.16,0.23,0.32C8.02,9.48,7.99,9.34,7.98,9.18z"/>
				<path class="st7" d="M8.66,9.72c0.01,0.07,0.02,0.14,0.03,0.21C8.54,9.94,8.46,9.88,8.43,9.73C8.51,9.73,8.58,9.72,8.66,9.72z"
					/>
				<path class="st14" d="M5.22-0.58C4.98-0.39,4.7-0.49,4.44-0.47c-0.03,0-0.07,0-0.1,0c-0.3,0-0.6,0.01-0.91,0.01
					C3.14-0.44,2.8-0.53,2.67-0.14C2.43-0.01,2.3,0.27,2,0.32c-0.11,0-0.22-0.01-0.33-0.01C1.34,0.25,1.08,0.44,0.79,0.54L0.78,0.53
					C0.5,0.02,0,0.15-0.43,0.09C-0.67-0.24-0.66,0.16-0.77,0.2c-0.07,0-0.14,0-0.21,0c0-0.04-0.01-0.08-0.01-0.12l0,0
					c0.08-0.08,0.17-0.15,0.25-0.23c0.03-0.02,0.05-0.05,0.08-0.07c0.04-0.08,0.08-0.17,0.11-0.25l0,0c0.26-0.04,0.4-0.19,0.44-0.44
					c0,0,0,0,0,0c0.04-0.04,0.08-0.08,0.11-0.11C0.1-1.18,0.24-1.41,0.39-1.39C1.28-1.28,2-1.97,2.87-1.91
					c0.24,0.02,0.55,0.09,0.58-0.32c0.28-0.05,0.54,0.06,0.81,0.09c0.16,0.02,0.35-0.02,0.43,0.16C4.8-1.72,4.46-1.74,4.41-1.53
					c0.25,0.17,0.75-0.1,0.81,0.41C5.22-0.93,5.22-0.76,5.22-0.58z M-0.19-0.29l-0.04-0.03l-0.01,0.04L-0.19-0.29z"/>
				<path class="st8" d="M15.07-2.14c0.29,0.04,0.43-0.14,0.54-0.37c0.05-0.1,0.1-0.21,0.23-0.21c0.13,0,0.19,0.12,0.21,0.22
					c0.1,0.7,0.41,1.38,0,2.1c-0.14,0.25-0.28,0.68,0.11,0.87c0.31,0.15-0.11,0.54,0.26,0.61c-0.04,0.11-0.08,0.22-0.12,0.33
					c-0.05,0.03-0.13,0.07-0.13,0.08c0.27,0.8-0.1,1.12-0.86,1.16c-0.03,0-0.05,0.05-0.08,0.07c-0.04,0-0.08,0.01-0.12,0.01
					c-0.04-0.03-0.09-0.07-0.13-0.1c0-0.03,0-0.05,0-0.08c-0.63-1.08-0.65-2.22-0.39-3.4c0.04-0.2,0.05-0.4,0.08-0.6
					C14.91-1.61,14.85-1.96,15.07-2.14z"/>
				<path class="st13" d="M18.31,3.64c-0.03,0.04-0.07,0.08-0.1,0.12c-0.05,0.06-0.09,0.11-0.14,0.17c-0.03,0.01-0.07,0.02-0.1,0.03
					c-0.13,0.02-0.2,0.09-0.23,0.22c-0.07,0.01-0.14,0.02-0.21,0.04c-0.43,0.04-0.56,0.48-0.89,0.66c-0.01-0.05-0.02-0.09-0.03-0.14
					c0.09-0.2,0.42-0.41-0.04-0.57c-0.09,0.19-0.03,0.39-0.05,0.58c0,0-0.01,0.01-0.01,0.01c-0.08,0-0.15,0-0.23,0.01
					c-0.03,0.03-0.06,0.06-0.09,0.1l0,0.01c-0.17,0.07-0.29,0.19-0.33,0.37c-0.02,0.03-0.04,0.05-0.07,0.07
					c-0.05-0.01-0.1-0.02-0.15-0.03c-0.08-0.12-0.12-0.26-0.12-0.41c0.11-0.09,0.1-0.22,0.12-0.34c0.05-0.04,0.1-0.08,0.15-0.11
					c-0.05-0.04-0.1-0.07-0.15-0.11c0-0.07,0-0.15,0-0.22c0.02-0.03,0.11,0.03,0.08-0.07c-0.03,0.02-0.06,0.04-0.08,0.06
					c-0.04,0.05-0.09,0.1-0.13,0.15c0.04,0.02,0.09,0.05,0.13,0.07c0,0.07,0,0.15,0,0.22c-0.1,0.04-0.21,0.09-0.31,0.13
					c-0.17-0.03-0.32,0.01-0.46,0.09c-0.08-0.25,0.35-0.32,0.21-0.6c0.04-0.13,0.08-0.26,0.12-0.4c0,0,0.03-0.03,0.03-0.03
					l-0.03,0.03c-0.07,0-0.15,0.01-0.22,0.01c-0.19-0.18-0.29,0.03-0.42,0.09c-0.11,0.05-0.19,0.2-0.33,0.07
					c-0.13-0.13-0.15-0.28-0.08-0.45c0.25-0.59,0.57-0.7,1.15-0.38c0.04,0.07,0.08,0.15,0.12,0.22l0,0c0.09,0.28,0.3,0.05,0.45,0.1
					c0.07,0.01,0.14,0.02,0.2,0.02c0.01,0.03,0.02,0.07,0.04,0.1c0.28,0.49,0.58,0.03,0.87,0.02c0.38,0.23,0.75,0.14,1.12-0.04
					c0.03,0,0.05,0,0.08,0C18.22,3.55,18.26,3.6,18.31,3.64z"/>
				<path class="st9" d="M15.22,2.73c0.03-0.02,0.05-0.07,0.08-0.07c0.76-0.04,1.13-0.35,0.86-1.16c0-0.01,0.09-0.05,0.13-0.08
					c0.41-0.17,0.5,0.16,0.52,0.41c0.03,0.34,0.37,0.7,0,1.04c-0.03,0.02-0.07,0.05-0.1,0.04c-0.4-0.12-0.57,0.24-0.85,0.38
					c-0.11-0.23-0.23-0.46-0.54-0.43C15.28,2.81,15.25,2.77,15.22,2.73z"/>
				<path class="st18" d="M15.07,4.14c0.14,0.27-0.29,0.35-0.21,0.6c-0.06,0.11-0.17,0.31-0.16,0.32c0.35,0.23,0,0.39-0.06,0.57
					c-0.19,0.14-0.39-0.01-0.58,0c-0.26-0.3-0.34-0.36-0.43-0.34l0,0c0-0.11-0.01-0.22-0.01-0.33c0.01-0.15,0.01-0.29,0.02-0.44
					c0.07,0,0.14,0,0.21,0c-0.04,0.2-0.03,0.35,0.23,0.32c0.01,0.04,0.03,0.09,0.04,0.13c0.03-0.04,0.06-0.07,0.09-0.11
					c0.03-0.03,0.06-0.06,0.09-0.09c-0.04,0.02-0.08,0.03-0.13,0.05c-0.03,0.01-0.07,0.01-0.1,0.02c0-0.08,0-0.15,0-0.23
					c0.26-0.05,0.55-0.03,0.67-0.35c0.03,0.01,0.06,0.02,0.1,0.02c0.06-0.04,0.12-0.08,0.18-0.11C15.04,4.18,15.06,4.16,15.07,4.14z
					"/>
				<path class="st9" d="M14.65-1.45c-0.03,0.2-0.04,0.4-0.08,0.6c-0.26,1.18-0.23,2.33,0.39,3.4c-0.28-0.05-0.45-0.23-0.55-0.49
					c-0.45-1.16-0.38-2.32,0.09-3.45C14.52-1.43,14.6-1.43,14.65-1.45z"/>
				<path class="st15" d="M15.31,2.86c0.32-0.02,0.43,0.2,0.54,0.43c0,0.04,0,0.07,0.01,0.11c-0.15-0.05-0.36,0.18-0.45-0.1
					c0,0,0.03-0.02,0.03-0.02L15.42,3.3c-0.04-0.07-0.08-0.15-0.12-0.22C15.3,3.01,15.31,2.93,15.31,2.86z"/>
				<path class="st15" d="M14.85,4.3c-0.03,0-0.07-0.01-0.1-0.02c0.07-0.17,0.15-0.35,0.22-0.52c0.07,0,0.15-0.01,0.22-0.01l0,0
					c-0.04,0.13-0.08,0.26-0.12,0.4c-0.01,0.02-0.02,0.03-0.04,0.04C14.97,4.23,14.91,4.26,14.85,4.3z"/>
				<path class="st15" d="M14.09,4.85c-0.27,0.03-0.28-0.13-0.23-0.32c0.12-0.06,0.21-0.08,0.23,0.1
					C14.08,4.71,14.08,4.78,14.09,4.85L14.09,4.85z"/>
				<path class="st15" d="M14.96,2.63c0.04,0.03,0.09,0.07,0.13,0.1C15.03,2.73,14.93,2.77,14.96,2.63z"/>
				<path class="st9" d="M9.65,11.06c0.45,0.16,0.6,0.6,0.62,0.96c0.03,0.51,0.2,0.89,0.56,1.2c0.57,0.49,0.58,1.17,0.69,1.82
					c-0.38-0.09-0.57-0.51-0.98-0.55c-0.01-0.15-0.01-0.29-0.02-0.44c0.15-0.18,0.05-0.39-0.03-0.52
					C10.04,12.77,10.09,11.83,9.65,11.06z"/>
				<path class="st8" d="M9.65,11.06c0.44,0.77,0.39,1.71,0.86,2.47c0.08,0.13,0.18,0.34,0.03,0.52c-0.37-0.23-0.55-0.53-0.58-1
					C9.93,12.5,9.67,12,9.42,11.5c-0.11-0.21-0.13-0.46-0.19-0.69C9.37,10.9,9.51,10.98,9.65,11.06z"/>
				<path class="st7" d="M3.12,10.29c-0.11,0.33-0.32,0.56-0.66,0.67l-0.01-0.01C2.62,10.67,2.62,10.24,3.12,10.29
					C3.11,10.28,3.12,10.29,3.12,10.29z"/>
				<polygon class="st7" points="2.11,11.35 2.11,11.32 2.14,11.34 				"/>
				<path class="st7" d="M2.45,10.95c-0.01,0.03-0.02,0.07-0.03,0.1C2.34,10.99,2.43,10.98,2.45,10.95
					C2.44,10.95,2.45,10.95,2.45,10.95z"/>
				<path class="st18" d="M15.86,3.4c0-0.04-0.01-0.07-0.01-0.11c0.28-0.14,0.46-0.5,0.85-0.38c0.03,0.01,0.07-0.02,0.1-0.04
					c0.37-0.34,0.03-0.7,0-1.04c-0.02-0.25-0.11-0.57-0.52-0.41c0.04-0.11,0.08-0.22,0.12-0.33c0.11,0.03,0.23,0.07,0.34,0.1
					c0.03-0.03,0.06-0.06,0.1-0.1c0,0,0.01-0.01,0.01-0.01c0.14-0.11,0.28-0.22,0.43-0.33c0.36,0.05,0.72,0,1.08,0.03
					c0.39,0.03,0.56-0.41,0.81-0.65c0.22-0.21,0.32-0.16,0.42,0.07c0.02,0.14,0.11,0.21,0.25,0.22c0.09,0.12,0.21,0.11,0.33,0.09
					c0,0.04,0,0.09,0,0.13c-0.09,0.06-0.11,0.14-0.1,0.24c-0.12,0.1-0.24,0.21-0.36,0.31c0,0,0,0.01,0,0.01
					c-0.09,0-0.17,0.03-0.22,0.11c0,0,0,0,0,0c-0.04,0-0.08,0-0.12,0c-0.07,0-0.14,0-0.2,0.01c-0.7-0.3-1.28-0.08-1.45,0.55
					c-0.05,0.22-0.02,0.39,0.23,0.44c0.04,0.03,0.08,0.07,0.12,0.1c0.01,0.03,0.02,0.07,0.03,0.1c-0.39,0.31-0.69,0.73-1.13,0.99
					c-0.01,0.01-0.01,0.03-0.01,0.05c-0.29,0.01-0.59,0.47-0.87-0.02c0.04-0.05,0.11-0.13,0.1-0.14c-0.07-0.08-0.1,0-0.14,0.04
					C16,3.42,15.93,3.41,15.86,3.4z M17.53,2.54c0.01-0.01,0.02-0.02,0.03-0.04c0,0-0.02-0.03-0.02-0.02
					c-0.01,0.01-0.03,0.02-0.04,0.03c-0.01,0.01-0.02,0.02-0.03,0.04c0,0,0.02,0.02,0.02,0.02C17.51,2.57,17.52,2.55,17.53,2.54z
					 M17.2,2.82l0-0.04L17.16,2.8L17.2,2.82z"/>
				<path class="st3" d="M11.76,3.96c0.61,0.41,1.08,1.01,1.76,1.35c-0.33,0.09-0.69-0.11-1.01,0.24c-0.13,0.14-0.22-0.17-0.14-0.31
					c0.2-0.33,0.08-0.44-0.25-0.52C11.72,4.61,11.75,4.27,11.76,3.96z"/>
				<path class="st13" d="M14.07,5.64c0.19-0.01,0.39,0.14,0.58,0c0.18,0,0.37,0,0.55-0.01c-0.07,0.1-0.13,0.2-0.2,0.3
					c-0.28-0.03-0.5,0.34-0.81,0.14c-0.17-0.1-0.3-0.23-0.34-0.43C13.92,5.64,14,5.64,14.07,5.64z"/>
				<path class="st3" d="M11.29,4.88c0.23,0.02,0.24,0.19,0.24,0.36c0,0.2-0.03,0.38-0.29,0.37c-0.23-0.01-0.26-0.17-0.26-0.35
					C10.99,5.06,11.05,4.9,11.29,4.88z"/>
				<path class="st3" d="M11.54,0.86c0,0.19,0.04,0.39-0.11,0.56C10.95,1.14,11.4,1.03,11.54,0.86z"/>
				<path class="st11" d="M14.07,5.64c-0.07,0-0.14,0-0.22,0c-0.2-0.03-0.22-0.18-0.21-0.34C13.73,5.28,13.81,5.33,14.07,5.64z"/>
				<path class="st3" d="M11.43,2.85c0.25,0.07,0.21,0.27,0.21,0.45C11.35,3.25,11.29,3.1,11.43,2.85z"/>
				<path class="st9" d="M8.33,9.06C7.8,8.81,7.53,8.31,7.5,7.74C7.48,7.36,7.54,6.91,7.11,6.65c-0.15-0.09-0.16-0.3-0.07-0.45
					c0.09-0.15,0.22-0.08,0.34-0.01C7.6,6.32,7.73,6.2,7.82,6.02c0.11-0.22-0.04-0.31-0.2-0.43c-0.2-0.15-0.53-0.09-0.63-0.39
					c0.57-0.01,0.94,0.27,1.24,0.74c0.31,0.5,0.84,0.85,0.99,1.47c-0.1,0.46-0.39,0.81-0.68,1.16C8.41,8.71,8.31,8.86,8.33,9.06z"/>
				<path class="st17" d="M-0.65,1.08c0.2-0.26,0.33-0.51,0-0.77c0.13-0.01,0.2-0.09,0.22-0.22l0,0C0,0.15,0.5,0.02,0.78,0.53
					c0,0.01-0.01,0.03-0.01,0.04c0.01-0.01,0.02-0.02,0.02-0.03c0.29-0.1,0.55-0.29,0.88-0.23c0,0.07,0,0.14,0,0.21
					C1.23,0.63,0.91,0.95,0.56,1.2C0.44,1.03,0.34,0.75,0.08,0.86c-0.28,0.12-0.09,0.37-0.05,0.57c0.02,0.11,0.06,0.21,0.09,0.31
					C0.09,1.79,0.05,1.83,0.01,1.87C-0.2,1.63-0.64,1.63-0.66,1.2l0,0c0.01-0.01,0.03-0.02,0.03-0.03
					C-0.63,1.14-0.64,1.11-0.65,1.08z"/>
				<path class="st13" d="M0.56,1.2c0.35-0.25,0.67-0.56,1.1-0.67C1.68,0.71,1.69,0.91,1.49,1C0.91,1.27,0.69,1.8,0.46,2.34
					C0.37,2.56,0.2,2.77-0.01,2.67c-0.25-0.12-0.74,0.2-0.76-0.37c0.24-0.18,0.59-0.16,0.78-0.43c0.04-0.04,0.08-0.08,0.12-0.12
					C0.44,1.7,0.56,1.49,0.56,1.2z"/>
				<path class="st15" d="M0.34,4.96C0.07,5.04,0.12,4.87,0.18,4.73C0.3,4.46,0.28,4.19,0.21,3.9C0.13,3.59-0.01,3.63-0.21,3.75
					l-0.01-0.01C-0.21,3.51,0,3.44,0.13,3.3c0.46-0.01,0.23,0.44,0.41,0.64c0.32,0.38,0.21,1.4-0.09,1.8
					C0.37,5.75,0.21,5.78,0.23,5.77C0.5,5.53,0.28,5.23,0.34,4.96c0.01,0.01,0.03-0.03,0.03-0.03L0.34,4.96z"/>
				<path class="st9" d="M10,9.28c0.01,0.14,0.02,0.29,0.04,0.43c0.02,0.14,0.14,0.31-0.06,0.38c-0.15,0.06-0.2-0.12-0.26-0.23
					C9.59,9.64,9.46,9.42,9.33,9.2C9.11,8.81,9.22,8.58,9.66,8.5C9.77,8.76,9.88,9.02,10,9.28z"/>
				<path class="st16" d="M0.01,1.87C-0.18,2.14-0.54,2.12-0.77,2.3c-0.11-0.07-0.16-0.22-0.32-0.21c0.04-0.08,0.07-0.16,0.11-0.23
					c0.01-0.01,0.03-0.02,0.03-0.03c0-0.03-0.02-0.05-0.02-0.07c-0.07-0.02-0.13-0.04-0.2-0.06c0.2-0.14,0.21-0.48,0.52-0.5
					C-0.64,1.63-0.2,1.63,0.01,1.87z"/>
				<path class="st9" d="M5.21,5.17c0.23-0.38,0.61-0.13,0.9-0.22c0.07,0,0.14,0,0.21,0.01c0,0.04,0,0.09,0,0.13
					C5.97,5.27,5.58,5.15,5.21,5.17z"/>
				<path class="st15" d="M6.33,5.09c0-0.04,0-0.09,0-0.13c0.22-0.14,0.43-0.2,0.56,0.11C6.7,5.08,6.51,5.09,6.33,5.09z"/>
				<path class="st14" d="M6.54,0.42C6.46,0.27,6.15,0.37,6.19,0.15c0.04-0.22,0.3-0.31,0.47-0.26C6.94-0.04,7.5-0.25,7.32,0.41
					C7.06,0.41,6.8,0.41,6.54,0.42z"/>
				<path class="st9" d="M11.89,2.63c0-0.22,0-0.43-0.01-0.65c0.36-0.15,0.08-0.55,0.37-0.82c0.11,0.6,0.03,1.14,0.06,1.67
					C12.05,2.93,12.06,2.62,11.89,2.63z"/>
				<path class="st16" d="M16.64,4.87c0.32-0.18,0.46-0.62,0.89-0.66c0.28,0.3,0.38,0.48-0.13,0.74c-0.35,0.18-0.51,0.7-1,0.79
					c-0.12-0.13-0.28-0.1-0.43-0.11c0-0.02,0-0.04,0-0.07c0.04-0.04,0.08-0.09,0.12-0.13c0.04-0.04,0.09-0.09,0.13-0.13
					C16.36,5.16,16.5,5.02,16.64,4.87z"/>
				<path class="st17" d="M15.97,5.63c0.15,0.01,0.31-0.02,0.43,0.11c-0.28,0.2-0.55,0.42-0.84,0.61c-0.11,0.07-0.29,0.12-0.38-0.05
					c-0.02-0.04,0.09-0.14,0.13-0.21c0.03-0.04,0.07-0.08,0.11-0.12c0.11-0.04,0.21-0.07,0.32-0.11
					C15.87,5.84,15.95,5.77,15.97,5.63L15.97,5.63z"/>
				<path class="st3" d="M15.42,5.96C15.38,6,15.35,6.04,15.31,6.08c0-0.05-0.01-0.1-0.01-0.14c0.04-0.1,0.08-0.2,0.12-0.3l0,0
					c0.04-0.04,0.07-0.07,0.11-0.11l0,0c0.04-0.04,0.07-0.07,0.11-0.11l0,0c0.05-0.04,0.1-0.07,0.15-0.11
					c0.03-0.02,0.05-0.04,0.07-0.07c0.08-0.02,0.16-0.04,0.23-0.06c-0.01,0.04-0.01,0.08-0.02,0.12C16.04,5.34,16,5.39,15.96,5.43
					c0,0.04,0.01,0.09,0.01,0.13c0,0.02,0,0.04,0,0.07c0,0,0,0,0,0c-0.03,0-0.06,0-0.08,0C15.65,5.62,15.52,5.77,15.42,5.96z"/>
				<path class="st15" d="M15.42,5.63c-0.04,0.1-0.08,0.2-0.12,0.3c-0.1,0-0.2,0-0.3,0c0.07-0.1,0.13-0.2,0.2-0.3
					C15.27,5.63,15.35,5.63,15.42,5.63z"/>
				<path class="st11" d="M15.42,5.63c-0.07,0-0.14,0-0.22-0.01c-0.18,0-0.37,0-0.55,0.01c0.06-0.18,0.4-0.34,0.06-0.57
					c-0.01-0.01,0.1-0.21,0.16-0.32c0.15-0.07,0.3-0.12,0.46-0.09c0,0.13,0.09,0.18,0.2,0.21c0,0.15,0.03,0.28,0.12,0.41
					c0,0.05,0,0.09,0,0.14c0,0,0,0,0,0c-0.04,0.04-0.07,0.07-0.11,0.11c0,0,0,0,0,0C15.49,5.56,15.45,5.59,15.42,5.63L15.42,5.63z"
					/>
				<path class="st15" d="M15.52,4.86c-0.11-0.03-0.2-0.08-0.2-0.21c0.1-0.04,0.21-0.09,0.31-0.13l0,0
					C15.63,4.65,15.63,4.77,15.52,4.86z"/>
				<path class="st15" d="M16.18,5.09c-0.03,0.03-0.06,0.05-0.09,0.08c-0.08,0.02-0.16,0.04-0.23,0.06c0.05-0.18,0.17-0.3,0.33-0.37
					C16.19,4.94,16.19,5.01,16.18,5.09z"/>
				<path class="st11" d="M15.63,4.52c0-0.07,0-0.15,0-0.22l0,0c0.05,0.04,0.1,0.07,0.15,0.11C15.73,4.45,15.69,4.49,15.63,4.52
					C15.64,4.52,15.63,4.52,15.63,4.52z"/>
				<path class="st11" d="M15.64,4.08c0,0.07,0,0.15,0,0.22l0,0c-0.04-0.02-0.09-0.05-0.13-0.07C15.55,4.18,15.59,4.13,15.64,4.08
					L15.64,4.08z"/>
				<path class="st11" d="M15.63,4.08c0.03-0.02,0.06-0.04,0.08-0.06C15.75,4.11,15.66,4.05,15.63,4.08
					C15.64,4.08,15.63,4.08,15.63,4.08z"/>
				<path class="st15" d="M15.64,5.41c0-0.05,0-0.09,0-0.14c0.05,0.01,0.1,0.02,0.15,0.03C15.74,5.34,15.69,5.37,15.64,5.41z"/>
				<polygon class="st15" points="15.19,3.74 15.22,3.71 15.19,3.75 				"/>
				<path class="st11" d="M14.08,4.86c0.03-0.01,0.07-0.01,0.1-0.02c0.01,0.01,0.02,0.03,0.04,0.04c-0.03,0.04-0.06,0.07-0.09,0.11
					C14.12,4.94,14.1,4.9,14.08,4.86C14.09,4.85,14.08,4.86,14.08,4.86z"/>
				<path class="st11" d="M14.18,4.84c0.04-0.02,0.08-0.03,0.13-0.05c-0.03,0.03-0.06,0.06-0.09,0.09
					C14.21,4.87,14.2,4.85,14.18,4.84z"/>
				<path class="st13" d="M14.85,4.3c0.06-0.04,0.12-0.08,0.18-0.11C14.97,4.23,14.91,4.26,14.85,4.3z"/>
				<polygon class="st13" points="15.42,3.3 15.44,3.28 15.41,3.3 				"/>
				<path class="st16" d="M0.56,1.2c0,0.3-0.12,0.5-0.44,0.55c-0.03-0.1-0.07-0.21-0.09-0.31c-0.04-0.2-0.23-0.45,0.05-0.57
					C0.34,0.75,0.44,1.03,0.56,1.2z M0.24,1.38l0-0.03L0.21,1.36L0.24,1.38z"/>
				<path class="st14" d="M0.79,0.54C0.78,0.55,0.77,0.56,0.77,0.57c0-0.01,0.01-0.03,0.01-0.04C0.78,0.53,0.79,0.54,0.79,0.54z"/>
				<polygon class="st18" points="0.34,4.96 0.37,4.94 0.35,4.97 				"/>
				<path class="st15" d="M16.08,5.29c0.05,0,0.1,0.01,0.15,0.01c-0.04,0.04-0.09,0.09-0.13,0.13c-0.04,0-0.09,0-0.13,0
					C16,5.39,16.04,5.34,16.08,5.29z"/>
				<path class="st11" d="M15.96,5.43c0.04,0,0.09,0,0.13,0c-0.04,0.04-0.08,0.09-0.12,0.13C15.97,5.52,15.97,5.48,15.96,5.43z"/>
				<path class="st11" d="M15.42,5.96c0.1-0.19,0.23-0.34,0.47-0.33c-0.05,0.07-0.1,0.15-0.15,0.22
					C15.63,5.89,15.52,5.92,15.42,5.96z"/>
				<path class="st16" d="M15.74,5.85c0.05-0.07,0.1-0.15,0.15-0.22c0.03,0,0.06,0,0.08,0C15.95,5.77,15.87,5.84,15.74,5.85z"/>
				<path class="st15" d="M15.53,5.52c0.04-0.04,0.07-0.07,0.11-0.11C15.6,5.45,15.56,5.48,15.53,5.52z"/>
				<path class="st15" d="M15.42,5.63c0.04-0.04,0.07-0.07,0.11-0.11C15.49,5.56,15.45,5.59,15.42,5.63z"/>
				<polygon class="st17" points="0.24,1.38 0.21,1.36 0.24,1.35 				"/>
			</g>
		</g>
	</g>
</g>
</svg>
